<svg width="175" height="175" viewBox="0 0 175 175" fill="none" xmlns="http://www.w3.org/2000/svg">
<circle cx="87.5" cy="87.5" r="87" stroke="black"/>
<mask id="mask0_6_324" style="mask-type:alpha" maskUnits="userSpaceOnUse" x="0" y="0" width="175" height="175">
<circle cx="87.5" cy="87.5" r="87.5" fill="#D9D9D9"/>
</mask>
<g mask="url(#mask0_6_324)">
<path d="M48.3501 97.6966C51.1687 102.47 55.1015 106.475 58.3861 110.941C63.9269 118.475 67.6015 127.369 68.9963 136.616C69.9466 142.912 70.344 150.272 75.5463 153.943C78.171 155.796 81.5167 156.251 84.7263 156.435C88.2616 156.639 92.1718 156.449 94.7815 154.054C98.139 150.973 97.9129 145.753 98.1925 141.205C98.8985 129.732 104.345 119.185 108.297 108.389C113.504 94.1667 116.202 79.0292 116.232 63.8831C116.244 57.7606 115.609 51.1056 111.455 46.6072C107.986 42.8502 102.731 41.361 97.6858 40.5244C83.5339 38.1771 63.7962 40.3337 56.7213 54.6774C50.9255 66.4296 41.3267 85.7998 48.3501 97.6966Z" fill="#FFE7FB"/>
<path d="M40.5847 185.001C44.0783 172.864 53.3547 161.526 65.8118 159.447C68.6133 158.98 71.584 159.009 74.1765 160.168C75.9238 160.949 77.4097 162.2 79.0135 163.245C82.9205 165.79 87.6118 167.112 92.2741 166.981C98.6515 166.804 104.923 163.996 111.229 164.974C119.373 166.238 125.257 173.448 129.005 180.788C135.697 193.901 138.147 209.137 135.903 223.687C135.642 225.358 65.425 223.351 58.8408 223.312C50.3197 223.262 42.7627 224.003 39.3645 215.012C36.1195 206.427 38.1572 193.438 40.5847 185.001Z" fill="#C3C62B"/>
<path d="M122.359 83.9242C119.506 89.7746 118.441 96.4831 119.339 102.931C123.623 104.243 128.077 101.657 131.584 98.8678C133.883 97.038 136.128 94.9961 137.41 92.3521C138.695 89.7082 138.83 86.3271 137.059 83.982C135.431 81.8266 132.525 80.9567 129.827 81.112C127.131 81.2674 124.572 82.2947 122.068 83.3082" fill="#FFE7FB"/>
<path d="M88.4909 102.752C88.8305 102.832 87.6606 107.182 82.7476 107.1C77.8346 107.019 74.2318 108.983 74.3143 117.582L72.1599 116.27C72.1599 116.27 67.6219 97.831 88.4909 102.752Z" fill="black"/>
<path d="M88.6006 102.752C88.2599 102.832 89.4298 107.182 94.3428 107.1C99.2558 107.019 102.859 108.983 102.777 117.582L104.932 116.27C104.932 116.27 109.469 97.831 88.6006 102.752Z" fill="black"/>
<path d="M54.5682 66.7738C54.5682 66.7738 54.3753 78.9749 56.85 92.8493C59.0783 105.341 63.46 119.182 72.084 126.681C76.0799 130.151 80.9758 132.263 86.9858 132.272C91.7638 132.272 95.8883 131.352 99.4451 129.713C100.249 129.348 101.02 128.942 101.759 128.501C102.005 128.363 102.252 128.212 102.488 128.051C102.98 127.752 103.452 127.43 103.912 127.088C104.105 126.949 104.287 126.81 104.48 126.669C104.748 126.456 105.016 126.253 105.273 126.028C105.701 125.674 106.119 125.309 106.526 124.924C106.976 124.505 107.426 124.067 107.855 123.606C108.198 123.242 108.54 122.856 108.873 122.471C108.905 122.439 108.937 122.396 108.969 122.363C109.269 122.01 109.558 121.645 109.837 121.282C109.88 121.239 109.922 121.185 109.955 121.142C115.782 113.558 118.718 103.187 120.132 93.5232C120.143 93.4921 120.143 93.4803 120.143 93.4803C122.21 79.3498 121.053 66.7738 121.053 66.7738" stroke="black" stroke-miterlimit="10"/>
<path d="M75.6084 129.08L75.5977 129.22L74.4407 141.411L73.4765 151.598L58.3497 161.081L52.5325 164.734C51.9004 165.13 51.2791 165.537 50.6684 165.966C40.3304 173.111 33.0669 183.931 30.3887 196.261L25 221.041" stroke="black" stroke-miterlimit="10"/>
<path d="M99.4453 129.713L99.7667 133.109L101.524 151.598L118.461 162.226L122.468 164.734C123.732 165.525 124.964 166.372 126.142 167.283C135.516 174.397 142.094 184.66 144.611 196.261L150 221.041" stroke="black" stroke-miterlimit="10"/>
<path d="M55.5963 85.781C55.5963 85.781 48.0619 75.1815 43.647 79.6714C39.2332 84.1612 46.1871 107.432 59.1702 105.448" stroke="black" stroke-miterlimit="10"/>
<path d="M121.071 85.4786C121.071 85.4786 128.246 74.6328 132.808 78.9715C137.371 83.3103 131.202 106.802 118.159 105.255" stroke="black" stroke-miterlimit="10"/>
<path d="M48.443 89.0945C48.443 89.0945 54.5141 89.4544 56.8463 94.4114" stroke="black" stroke-miterlimit="10"/>
<path d="M51.4062 94.1082C51.4062 94.1082 51.7116 92.0438 55.5875 92.5002" stroke="black" stroke-miterlimit="10"/>
<path d="M128.471 88.5535C128.471 88.5535 122.415 89.1159 120.251 94.1478" stroke="black" stroke-miterlimit="10"/>
<path d="M125.678 93.6635C125.678 93.6635 125.304 91.6098 121.444 92.1968" stroke="black" stroke-miterlimit="10"/>
<path d="M120.251 87.4038C120.251 87.4038 116.484 85.7658 116.484 81.8352C116.484 77.9046 118.449 70.8629 115.829 66.7684C113.21 62.6749 109.442 58.9082 109.442 58.9082C109.442 58.9082 86.6788 53.3407 60.8036 62.0193C60.8036 62.0193 56.9983 65.5075 58.0193 72.276C60.4758 88.5534 55.8424 87.466 55.8424 87.466C55.8424 87.466 48.4429 76.7583 50.7462 66.1963C50.7462 66.1963 36.861 52.9582 47.4573 32.296C59.1709 9.45042 99.5591 11.1463 113.317 26.2838C124.362 38.4378 120.251 46.4618 120.251 46.4618C120.251 46.4618 135.975 60.5463 120.251 87.4038Z" fill="black"/>
<path d="M67.1157 56.1227C65.047 53.6126 63.4647 50.7137 62.2317 47.6851C60.9997 44.649 60.2508 41.4094 59.9851 38.1301C59.8052 36.49 59.9251 34.8402 59.9766 33.1957C60.2572 31.5727 60.359 29.9164 60.9086 28.3566C61.1582 27.5735 61.3135 26.7636 61.6392 26.0105L62.5959 23.75C62.8905 22.9862 63.3469 22.3016 63.7593 21.5999C64.1729 20.8982 64.5982 20.2061 65.0278 19.5205C63.6587 22.4623 62.2981 25.3955 61.7078 28.5548C61.2889 30.0986 61.2011 31.7012 60.9879 33.276C60.9718 34.8691 60.8593 36.461 61.0522 38.0476C61.2846 41.223 61.9767 44.363 62.9998 47.399C63.529 48.9117 64.1182 50.4083 64.8221 51.8567C65.4734 53.333 66.2672 54.7396 67.1157 56.1227Z" fill="white"/>
<path d="M74.4819 15.8914C73.3635 17.7244 72.6575 19.7363 72.049 21.7492C71.4715 23.7772 71.0837 25.8523 70.8352 27.9446L70.6606 29.5162L70.5684 31.0974C70.4624 32.1516 70.517 33.2111 70.4699 34.2717C70.4624 35.3323 70.5192 36.394 70.5224 37.461C70.5609 38.5269 70.6552 39.5907 70.6702 40.6696C70.4142 39.6272 70.217 38.5709 69.9996 37.5135C69.8699 36.4465 69.6996 35.3784 69.6343 34.3006C69.4982 32.1473 69.5046 29.9726 69.7714 27.8171C70.0478 25.667 70.4967 23.5276 71.2573 21.4889C72.0158 19.462 73.0239 17.4844 74.4819 15.8914Z" fill="white"/>
<path d="M73.1258 28.281C72.9951 27.1208 73.0412 25.9584 73.1644 24.8057C73.2812 23.6519 73.5126 22.5099 73.834 21.3882C74.1725 20.2719 74.5807 19.1642 75.1935 18.1497C75.7891 17.1394 76.5508 16.1742 77.5525 15.5614C76.8604 16.5009 76.3751 17.4983 75.9412 18.5225C75.5138 19.5477 75.1699 20.6115 74.8624 21.6882C74.2143 23.8383 73.7483 26.0441 73.1258 28.281Z" fill="white"/>
<path d="M87.0577 28.2809C86.9731 30.6067 86.821 32.9057 86.8563 35.2037C86.8938 37.4995 87.0085 39.7867 87.3106 42.0504C87.6148 44.3129 88.1237 46.5348 88.7847 48.7192C89.1639 49.7927 89.5239 50.8822 90.0424 51.9042C90.4441 52.9916 91.1041 53.9333 91.6204 54.9842C90.1153 53.2144 88.894 51.1811 88.0091 48.9999C87.1413 46.8144 86.5853 44.5144 86.2478 42.1918C85.9661 39.8617 85.8772 37.5123 86.0357 35.1822C86.1064 34.0166 86.236 32.8564 86.3957 31.7037C86.5842 30.5531 86.8081 29.4133 87.0577 28.2809Z" fill="white"/>
<path d="M82.3463 57.5541C82.3463 57.5541 73.2499 60.4638 76.3202 66.7684C76.3202 66.7684 69.4564 56.1593 82.3463 57.5541Z" fill="black"/>
<path d="M63.7513 75.7554C64.3019 75.0484 64.9147 74.5577 65.5371 74.0831L67.4034 74.1581C68.645 74.231 69.8845 74.3724 71.1197 74.5834C72.3571 74.7902 73.5859 75.1062 74.8018 75.493C75.406 75.7019 76.0113 75.9129 76.6026 76.1829C77.0076 76.8664 77.3451 77.6184 77.554 78.4433C76.7033 78.7369 76.0199 78.8772 75.3149 79.129C74.8275 78.9029 74.3111 78.724 73.7948 78.5451C72.7492 78.2141 71.6747 77.9334 70.5691 77.7502C69.4656 77.5617 68.3451 77.4331 67.217 77.3667C66.6524 77.3431 66.0878 77.2992 65.5254 77.3292C64.9597 76.846 64.3855 76.3854 63.7513 75.7554Z" fill="black"/>
<path d="M72.1606 84.9979C72.1606 86.7269 71.281 88.1293 70.1947 88.1293C69.1095 88.1293 68.2299 86.7269 68.2299 84.9979C68.2299 83.2677 69.1095 81.8654 70.1947 81.8654C71.281 81.8654 72.1606 83.2677 72.1606 84.9979Z" fill="black"/>
<path d="M110.618 74.9572C109.995 75.5904 109.452 76.0735 108.925 76.576C108.379 76.5695 107.833 76.6413 107.288 76.6992C106.198 76.832 105.118 77.0548 104.067 77.3559C103.014 77.6494 101.989 78.0297 101.015 78.5032C100.52 78.7261 100.049 78.9907 99.5838 79.2639C98.8585 79.1032 98.1569 79.0485 97.2827 78.8461C97.3994 78.0062 97.634 77.2273 97.9436 76.4999C98.4954 76.1764 99.0535 75.8657 99.6331 75.6021C100.779 75.0461 101.973 74.6037 103.19 74.2641C104.405 73.917 105.642 73.662 106.892 73.5099C107.517 73.4274 108.146 73.3942 108.777 73.3331C109.428 73.7841 110.065 74.2534 110.618 74.9572Z" fill="black"/>
<path d="M102.511 84.9979C102.511 86.7269 103.391 88.1293 104.476 88.1293C105.562 88.1293 106.442 86.7269 106.442 84.9979C106.442 83.2677 105.562 81.8654 104.476 81.8654C103.391 81.8654 102.511 83.2677 102.511 84.9979Z" fill="black"/>
<path d="M84.8271 83.5903C84.9503 84.081 85.1956 91.5105 81.6346 99.8024C81.6346 99.8024 85.3884 102.307 89.9329 99.5238" stroke="black" stroke-miterlimit="10"/>
<path d="M80.2319 109.714C80.2319 109.714 88.4991 111.494 97.2838 110.192" stroke="black" stroke-miterlimit="10"/>
<path d="M84.9294 113.472C84.9294 113.472 89.5992 114.25 92.0525 112.94" stroke="black" stroke-miterlimit="10"/>
<path d="M120.132 93.5235C118.718 103.188 115.783 113.558 109.955 121.143C107.159 124.764 103.709 127.753 99.4455 129.713C95.8888 131.352 91.7643 132.273 86.9862 132.273C80.9762 132.263 76.0804 130.151 72.0844 126.681C63.4604 119.182 59.0788 105.341 56.8504 92.8496C56.8504 92.8496 62.5605 106.487 66.6208 111.147C70.6703 115.818 74.677 119.417 88.9467 119.664C103.217 119.417 107.234 115.818 111.283 111.147C115.204 106.637 119.843 94.2841 120.132 93.5235Z" fill="black"/>
<path d="M73.4735 151.599L89.933 169.123L101.527 151.599" stroke="black" stroke-miterlimit="10"/>
<path d="M67.2391 155.51L74.8871 171.251L85.3891 164.284" stroke="black" stroke-miterlimit="10"/>
<path d="M94.3002 162.522L103.219 171.251L110.845 157.443" stroke="black" stroke-miterlimit="10"/>
<path d="M89.9332 169.123H94.2998C94.2998 169.123 95.1943 177.147 90.772 178.621L89.9332 221.036" stroke="black" stroke-miterlimit="10"/>
<path d="M61.9384 221.042H53.4216L50.6683 165.966C51.2789 165.537 51.9003 165.13 52.5324 164.734L58.3496 161.081L61.9384 221.042Z" fill="black"/>
<path d="M126.142 167.283L123.463 221.041H114.947L118.46 162.227L122.467 164.734C123.731 165.525 124.963 166.372 126.142 167.283Z" fill="black"/>
<path d="M99.7669 133.109C90.8965 136.076 79.1657 139.89 74.4412 141.411L75.5982 129.22C78.8657 131.159 82.6367 132.262 86.9862 132.272C91.7642 132.272 95.8887 131.352 99.4455 129.713L99.7669 133.109Z" fill="black"/>
</g>
</svg>
