<svg width="175" height="175" viewBox="0 0 175 175" fill="none" xmlns="http://www.w3.org/2000/svg">
<circle cx="87.5" cy="87.5" r="87" stroke="black"/>
<mask id="mask0_6_283" style="mask-type:alpha" maskUnits="userSpaceOnUse" x="0" y="0" width="175" height="175">
<circle cx="87.5" cy="87.5" r="87.5" fill="#D9D9D9"/>
</mask>
<g mask="url(#mask0_6_283)">
<path d="M72.3187 94.4561C81.1422 102.833 91.2322 112.577 90.3731 124.714C90.1221 128.252 88.7928 131.845 86.1075 134.163C82.312 137.439 76.3848 137.789 73.2406 141.692C70.404 145.213 70.9987 150.67 73.7416 154.264C76.4856 157.856 80.9015 159.82 85.3286 160.735C95.4485 162.826 106.485 159.866 114.202 152.993C115.421 151.908 116.588 150.69 117.195 149.176C118.261 146.515 117.418 143.51 116.513 140.791C113.475 131.651 109.765 122.071 111.841 112.667C114.173 102.109 123.239 94.4037 127.575 84.4989C131.607 75.2855 131.179 64.2376 126.447 55.3637C124.67 52.0312 122.196 48.8994 118.777 47.2995C115.55 45.7891 111.845 45.7943 108.284 45.9034C94.6789 46.3211 70.2713 44.8467 60.6669 56.7516C50.3948 69.4827 62.9726 85.5812 72.3187 94.4561Z" fill="#FFE7FB"/>
<path d="M59.0603 163.678C57.6991 161.672 56.1908 159.676 54.1136 158.424C49.4539 155.617 43.1264 157.442 39.1797 161.187C35.232 164.932 33.1125 170.158 31.1052 175.216C30.0414 177.893 28.9786 180.572 27.9158 183.25C26.5659 186.65 25.2027 190.107 24.8621 193.749C24.5226 197.391 25.3406 201.309 27.8643 203.957C30.027 206.228 33.1527 207.305 36.2176 207.971C43.3517 209.518 50.7389 209.257 58.0356 208.988C83.9988 208.03 67.8231 176.591 59.0603 163.678Z" fill="#6987FF"/>
<path d="M112.673 181.792C113.45 177.471 113.693 173.065 114.54 168.756C115.454 164.103 117.073 159.587 119.323 155.413C120.558 153.123 122.161 150.788 124.618 149.935C127.017 149.103 129.712 149.901 131.861 151.252C138.358 155.335 140.769 163.476 142.68 170.906C144.992 179.895 147.304 188.882 149.616 197.869C150.083 199.683 150.337 202.055 148.724 203.006C148.094 203.375 147.329 203.406 146.598 203.426C135.859 203.708 123.041 205.211 112.475 203.071C105.753 201.709 106.872 202.405 108.591 195.828C109.829 191.092 111.799 186.658 112.673 181.792Z" fill="#6987FF"/>
<path d="M80.078 191.098C81.2334 194.042 82.537 197.173 85.1832 198.903C88.8428 201.298 94.0293 200.057 97.1961 197.041C100.363 194.023 101.871 189.665 102.753 185.381C103.635 181.097 104.006 176.686 105.423 172.548C106.818 168.468 109.223 164.657 109.613 160.362C109.719 159.205 109.488 157.76 108.392 157.373C107.912 157.205 107.383 157.296 106.885 157.403C102.753 158.297 98.8474 160.211 94.6415 160.643C87.3736 161.389 75.513 152.687 71.8091 161.068C68.3881 168.808 77.3124 184.056 80.078 191.098Z" fill="#DAC8FF"/>
<path d="M75.5886 90.6711C73.0874 90.6948 70.5873 90.7195 68.0851 90.7442C67.367 90.7514 66.5511 90.8018 66.0912 91.3533C65.5233 92.0323 65.8597 93.1383 66.5532 93.6878C67.2476 94.2361 68.1695 94.376 69.0461 94.4964C70.1737 94.6518 71.3003 94.8061 72.4279 94.9625C74.0175 95.1806 75.8201 95.3421 77.0444 94.3071C78.2688 93.2711 77.8089 90.6485 76.21 90.7709" fill="#F03FA3"/>
<path d="M110.756 91.927C108.255 91.9507 105.754 91.9753 103.254 92C102.535 92.0072 101.719 92.0577 101.258 92.6102C100.691 93.2892 101.026 94.3942 101.721 94.9426C102.414 95.491 103.337 95.6309 104.214 95.7512C105.34 95.9076 106.468 96.062 107.595 96.2184C109.184 96.4365 110.987 96.598 112.212 95.563C113.436 94.5269 112.976 91.9043 111.378 92.0257" fill="#F03FA3"/>
<path d="M28.9129 200.588L34.0881 176.79C36.8146 164.248 44.4795 153.342 55.3546 146.52L75.4687 133.906L76.014 128.135L77.4338 113.227L77.475 112.805" stroke="black" stroke-miterlimit="10"/>
<path d="M142.118 97.9249C139.544 88.9142 130.658 43.4994 130.658 43.4994L111.102 42.486C119.791 50.1067 122.2 60.3232 122.2 60.3232C121.798 72.5656 119.905 82.2986 117.23 90.0459H117.22C114.133 99.0073 109.967 105.305 105.8 109.708C104.431 111.159 103.053 112.404 101.715 113.463C99.1326 115.532 96.684 116.94 94.6571 117.876C91.3545 119.43 89.1219 119.77 89.1219 119.77C82.743 117.384 77.609 113.854 73.473 109.708C55.3342 91.476 56.3528 61.0949 55.9001 60.3232C55.9001 60.3232 55.4896 47.8432 66.5107 40.1741L48.6014 39.2461C48.6014 39.2461 43.738 66.91 40.6781 87.1692C37.6183 107.428 41.1545 120.772 54.6881 122.188C68.2217 123.604 119.552 122.188 119.552 122.188C119.552 122.188 149.05 122.188 142.118 97.9249Z" fill="black"/>
<path d="M101.694 113.288L101.715 113.463L102.281 119.452L103.649 133.907L110.398 138.146H110.419V138.156L123.763 146.52C134.638 153.343 142.303 164.249 145.03 176.79L148.25 191.615L150.205 200.588" stroke="black" stroke-miterlimit="10"/>
<path d="M68.6055 69.0235C68.6055 69.0235 74.5029 67.0142 80.4013 69.0235" stroke="black" stroke-width="2" stroke-miterlimit="10" stroke-linecap="round" stroke-linejoin="bevel"/>
<path d="M76.3911 77.8703C76.3911 79.5319 75.5454 80.8776 74.5032 80.8776C73.462 80.8776 72.6162 79.5319 72.6162 77.8703C72.6162 76.2087 73.462 74.8629 74.5032 74.8629C75.5454 74.8629 76.3911 76.2087 76.3911 77.8703Z" fill="black"/>
<path d="M110.24 69.0233C110.24 69.0233 104.342 67.0139 98.4445 69.0233" stroke="black" stroke-width="2" stroke-miterlimit="10" stroke-linecap="round" stroke-linejoin="bevel"/>
<path d="M102.454 77.8705C102.454 79.5321 103.299 80.8779 104.341 80.8779C105.383 80.8779 106.229 79.5321 106.229 77.8705C106.229 76.2089 105.383 74.8632 104.341 74.8632C103.299 74.8632 102.454 76.2089 102.454 77.8705Z" fill="black"/>
<path d="M88.1109 77.901C88.2292 78.1592 88.7457 82.5298 85.4431 85.3756C85.4431 85.3756 84.7599 88.2492 89.7139 88.3151" stroke="black" stroke-miterlimit="10"/>
<path d="M82.3289 97.2898C82.3289 97.2898 90.6493 100.048 97.0982 97.4318" stroke="black" stroke-miterlimit="10"/>
<path d="M56.9299 71.8164C56.9299 71.8164 50.0243 63.1287 46.4675 67.1567C42.9118 71.1847 49.9029 90.6959 60.8766 88.4108" stroke="black" stroke-miterlimit="10"/>
<path d="M50.9873 74.9664C50.9873 74.9664 56.1779 74.9952 58.391 79.1127" stroke="black" stroke-miterlimit="10"/>
<path d="M53.7412 79.1049C53.7412 79.1049 53.9069 77.3312 57.2311 77.5431" stroke="black" stroke-miterlimit="10"/>
<path d="M121.437 71.8165C121.437 71.8165 128.343 63.1288 131.898 67.1568C135.455 71.1848 128.463 90.696 117.49 88.4109" fill="#F7F6F2"/>
<path d="M127.573 74.9667C127.573 74.9667 122.382 74.9955 120.169 79.113" stroke="black" stroke-miterlimit="10"/>
<path d="M124.818 79.1049C124.818 79.1049 124.652 77.3312 121.328 77.5431" stroke="black" stroke-miterlimit="10"/>
<path d="M55.9004 60.3234C56.3531 61.095 55.3346 91.4761 73.4733 109.708C77.6093 113.854 82.7433 117.384 89.1222 119.77C89.1222 119.77 91.3548 119.431 94.6575 117.877C96.6843 116.94 99.133 115.532 101.715 113.463C103.053 112.404 104.432 111.159 105.8 109.708C109.967 105.305 114.134 99.0074 117.22 90.046H117.231C119.906 82.2987 121.799 72.5657 122.2 60.3234" stroke="black" stroke-miterlimit="10"/>
<path d="M114.029 50.6227C114.029 50.6227 92.6109 71.6721 56.9312 73.8749C56.9312 73.8749 45.9275 62.2231 48.6015 41.3043C51.2755 20.3856 96.4197 -3.53429 122.207 29.3367C122.207 29.3367 143.047 45.0782 121.436 73.8749C121.436 73.8749 122.679 68.5526 114.029 50.6227Z" fill="black"/>
<path d="M64.6602 140.684C64.6602 140.684 77.4304 154.53 90.753 158.516C90.753 158.516 104.986 156.509 113.674 140.192" stroke="black" stroke-miterlimit="10"/>
<path d="M62.2874 142.173C62.2874 142.173 71.8784 157.047 90.4379 161.765C90.4379 161.765 110.9 156.928 116.003 141.653" stroke="black" stroke-miterlimit="10"/>
<path d="M60.8946 143.045C60.8946 143.045 71.25 175.239 75.8109 200.587" stroke="black" stroke-miterlimit="10"/>
<path d="M50.3284 150.154C50.3284 150.154 46.0854 164.754 54.736 174.033C63.3856 183.313 73.8604 190.841 73.8604 190.841" stroke="black" stroke-miterlimit="10"/>
<path d="M118.234 143.045C118.234 143.045 107.877 175.239 103.317 200.587" stroke="black" stroke-miterlimit="10"/>
<path d="M128.803 150.154C128.803 150.154 133.045 164.753 124.394 174.033C115.744 183.313 105.27 190.841 105.27 190.841" stroke="black" stroke-miterlimit="10"/>
<path d="M102.281 119.452C95.2337 121.859 82.98 125.862 76.0147 128.136L77.4345 113.228C80.768 115.851 84.6365 118.093 89.1223 119.77C89.1223 119.77 91.3549 119.432 94.6576 117.877C96.6844 116.941 99.1331 115.532 101.716 113.463L102.281 119.452Z" fill="black"/>
</g>
</svg>
